<?xml version="1.0" standalone="no"?>
<!DOCTYPE svg PUBLIC "-//W3C//DTD SVG 20010904//EN"
 "http://www.w3.org/TR/2001/REC-SVG-20010904/DTD/svg10.dtd">
<svg version="1.0" xmlns="http://www.w3.org/2000/svg"
 width="886.000000pt" height="1280.000000pt" viewBox="0 0 886.000000 1280.000000"
 preserveAspectRatio="xMidYMid meet">
<metadata>
Created by potrace 1.15, written by Peter Selinger 2001-2017
</metadata>
<g transform="translate(0.000000,1280.000000) scale(0.100000,-0.100000)"
fill="#000000" stroke="none">
<path d="M6944 12446 c-5 -13 -9 -14 -20 -5 -11 9 -14 9 -14 0 0 -7 -6 -9 -12
-5 -10 6 -10 4 0 -7 16 -18 15 -32 -2 -26 -8 3 -17 1 -20 -6 -3 -9 -5 -9 -5 1
-1 6 -6 12 -12 12 -5 0 -7 -5 -4 -10 8 -13 -34 -49 -56 -50 -9 0 -22 -11 -29
-25 -14 -26 -40 -34 -41 -12 0 6 -4 2 -9 -10 -5 -13 -16 -23 -25 -23 -8 0 -15
-8 -16 -17 0 -15 -2 -15 -7 -3 -13 28 -31 20 -38 -15 -3 -19 -10 -33 -14 -30
-5 3 -11 -4 -15 -14 -3 -11 -15 -23 -26 -26 -10 -4 -19 -11 -19 -16 0 -6 -5
-7 -12 -3 -8 5 -9 0 -6 -14 4 -13 2 -20 -3 -16 -5 3 -18 -5 -29 -18 -18 -22
-19 -22 -20 -3 -1 15 -4 11 -15 -12 -17 -39 -29 -43 -23 -8 7 33 4 32 -21 -11
-12 -19 -26 -32 -31 -29 -6 4 -13 -7 -16 -24 -4 -17 -13 -31 -20 -31 -9 0 -14
-11 -14 -27 0 -22 -2 -25 -10 -13 -8 11 -10 8 -8 -15 2 -16 0 -31 -4 -33 -18
-8 -78 -70 -78 -80 0 -7 -7 -12 -15 -12 -8 0 -15 -4 -15 -8 0 -17 -42 -57 -56
-54 -8 2 -14 -2 -14 -8 0 -8 -37 -30 -60 -34 -3 -1 -11 -5 -19 -10 -8 -5 -16
-4 -21 3 -5 9 -10 8 -20 -4 -9 -11 -16 -12 -25 -5 -14 12 -64 24 -119 29 -4 1
-5 8 -2 17 5 14 4 15 -8 5 -15 -12 -84 -12 -92 0 -2 4 -17 5 -32 1 -37 -8
-102 -4 -116 7 -7 6 -18 6 -26 1 -9 -5 -20 -5 -28 2 -10 9 -16 8 -22 -1 -8
-15 -50 -6 -62 13 -5 7 -8 5 -8 -6 0 -19 -42 -37 -48 -19 -4 13 -42 15 -42 3
0 -5 -17 -9 -37 -9 -87 0 -183 -9 -183 -16 0 -4 -11 -5 -25 -3 -15 3 -25 0
-26 -7 0 -7 -4 -3 -9 8 -5 11 -9 14 -9 7 -1 -8 -10 -12 -23 -11 -13 2 -29 0
-36 -5 -7 -4 -16 -5 -19 -2 -3 3 -13 0 -21 -6 -21 -18 -40 -18 -46 -1 -4 10
-13 13 -24 8 -34 -13 -202 -12 -213 1 -7 8 -18 10 -32 5 -14 -5 -30 -3 -44 6
-12 8 -24 10 -27 4 -7 -10 -44 -4 -63 12 -9 6 -13 6 -13 -1 0 -12 -33 -23 -75
-26 -16 -1 -35 -4 -41 -8 -5 -4 -23 4 -39 18 -21 18 -31 21 -42 13 -9 -9 -17
-8 -27 0 -11 9 -15 9 -18 -1 -3 -8 -11 -2 -23 15 -13 20 -21 25 -30 17 -9 -7
-19 -3 -38 14 -22 21 -26 22 -32 7 -6 -15 -7 -15 -16 1 -5 10 -25 25 -44 34
-19 9 -35 20 -35 25 0 5 -6 6 -14 3 -7 -3 -22 5 -32 18 -11 13 -28 24 -39 26
-11 2 -25 10 -32 19 -7 9 -19 13 -27 10 -9 -4 -18 -2 -22 4 -3 6 -13 8 -21 4
-9 -3 -30 6 -49 20 -18 14 -36 25 -40 25 -4 0 -25 18 -46 40 -22 22 -46 40
-53 40 -8 0 -27 12 -44 28 -17 15 -65 45 -108 67 -43 22 -83 44 -90 50 -7 5
-20 16 -29 24 -9 8 -24 15 -33 16 -9 1 -34 10 -56 20 -22 10 -46 18 -52 18 -7
0 -13 3 -13 7 0 9 -70 39 -111 46 -18 4 -42 11 -51 15 -11 6 -19 5 -24 -3 -5
-7 -3 -8 6 -3 8 5 11 4 7 -3 -4 -5 -15 -8 -25 -5 -25 6 -69 -20 -98 -58 -35
-48 -31 -136 17 -351 6 -26 8 -52 4 -58 -3 -5 -2 -10 4 -10 6 0 8 -6 5 -14 -3
-8 -1 -17 5 -21 6 -3 11 -14 11 -23 0 -10 11 -39 25 -65 14 -26 23 -52 20 -57
-3 -6 -1 -10 4 -10 6 0 11 -7 11 -15 0 -8 11 -39 25 -67 14 -29 23 -59 20 -67
-3 -7 8 -34 24 -60 16 -25 49 -86 73 -136 24 -49 56 -110 70 -135 33 -57 59
-133 64 -185 4 -53 12 -103 19 -124 3 -10 7 -53 10 -97 6 -106 23 -177 50
-214 7 -8 23 -40 37 -70 21 -44 25 -67 23 -115 -2 -33 -5 -67 -8 -75 -3 -8 -5
-22 -5 -30 -1 -19 -12 -71 -18 -81 -2 -4 2 -10 8 -12 9 -4 10 -8 2 -14 -6 -4
-14 -16 -17 -27 -6 -14 -4 -17 8 -12 9 3 13 2 10 -4 -3 -6 -1 -10 5 -10 6 0 2
-13 -9 -29 -19 -26 -19 -31 -7 -44 13 -12 13 -17 -1 -37 -9 -13 -11 -20 -5
-16 16 10 15 -13 -2 -46 -12 -23 -12 -26 0 -21 17 6 20 -42 4 -52 -8 -5 -7
-11 1 -21 6 -7 9 -20 6 -28 -3 -8 -1 -16 6 -19 8 -2 7 -15 -5 -45 -13 -34 -14
-42 -2 -46 9 -3 12 -16 10 -36 -3 -26 2 -33 24 -32 3 0 6 -22 7 -49 2 -27 -1
-49 -5 -49 -4 0 -8 -9 -8 -20 0 -14 5 -18 17 -15 15 5 33 -24 30 -47 -1 -5 4
-8 10 -8 8 0 8 -4 1 -13 -12 -14 -1 -41 14 -35 5 1 9 -9 10 -23 1 -14 5 -32
10 -40 5 -8 9 -21 10 -29 1 -25 25 -80 35 -80 5 0 9 -5 9 -11 0 -7 10 -20 21
-30 12 -10 19 -25 16 -33 -4 -11 -1 -13 10 -9 11 4 14 2 9 -5 -4 -7 -3 -12 2
-12 4 0 19 -20 31 -45 12 -25 26 -45 31 -45 5 0 7 -7 4 -15 -4 -9 0 -15 10
-15 10 0 13 -6 10 -15 -4 -8 -1 -15 5 -15 6 0 11 -7 11 -15 0 -8 6 -15 13 -15
27 0 -20 -20 -53 -22 -20 -1 -6 -4 30 -7 44 -4 64 -10 63 -18 -2 -7 2 -13 8
-13 20 0 3 -24 -22 -31 -22 -7 -22 -7 6 -8 59 -1 67 -5 78 -30 6 -14 16 -29
20 -32 5 -4 4 -10 -3 -14 -9 -6 -9 -9 1 -16 10 -6 4 -12 -21 -20 -122 -43
-380 -204 -445 -279 -11 -13 19 8 68 47 183 145 415 257 442 213 3 -5 0 -10
-7 -10 -9 0 -10 -3 -2 -8 6 -4 14 -17 18 -28 5 -17 -1 -28 -26 -49 -31 -26
-31 -27 -4 -10 20 12 31 14 34 7 2 -6 11 -8 20 -5 9 2 -8 -17 -38 -43 -30 -27
-77 -71 -105 -97 -27 -27 -10 -15 39 27 56 49 97 76 112 76 13 0 24 -4 24 -8
0 -5 9 -19 20 -32 16 -19 18 -26 7 -38 -10 -13 -9 -14 2 -8 8 5 16 3 22 -5 5
-9 -9 -33 -45 -74 -76 -87 -147 -182 -180 -240 -39 -67 -22 -49 56 65 37 52
89 120 116 150 50 55 50 55 70 35 20 -20 20 -20 -7 -42 l-26 -23 30 15 c17 8
31 11 33 6 13 -38 -198 -278 -271 -309 -17 -7 -39 -20 -49 -29 -23 -21 -23
-12 2 40 21 43 17 38 -33 -39 -17 -26 -36 -44 -48 -44 -12 0 -16 -5 -13 -15 4
-9 -3 -16 -23 -21 -15 -4 -48 -21 -73 -38 -25 -17 -73 -40 -108 -51 -34 -11
-62 -23 -62 -26 0 -5 -40 -17 -80 -23 -3 -1 -21 -13 -41 -29 -20 -15 -44 -27
-55 -27 -28 0 -104 -25 -112 -36 -4 -6 -42 -23 -84 -38 -43 -15 -78 -32 -78
-37 0 -5 -6 -9 -14 -9 -7 0 -24 -10 -38 -22 -13 -13 -50 -35 -82 -51 -60 -28
-63 -31 -109 -71 -15 -13 -42 -30 -60 -37 -17 -7 -38 -21 -45 -31 -7 -10 -17
-18 -22 -18 -5 0 -26 -16 -47 -36 -21 -19 -69 -56 -108 -82 -38 -26 -75 -54
-82 -62 -6 -9 -29 -34 -50 -56 -22 -22 -37 -46 -35 -52 2 -7 -1 -12 -7 -12 -6
0 -11 -6 -11 -13 0 -8 -12 -25 -27 -39 -59 -55 -163 -172 -163 -183 0 -3 -25
-30 -55 -60 -30 -31 -55 -64 -55 -74 0 -11 -25 -37 -65 -66 -35 -26 -62 -51
-60 -55 2 -4 -11 -25 -30 -48 -19 -22 -35 -49 -35 -60 0 -11 -7 -25 -15 -32
-8 -7 -15 -18 -15 -25 0 -8 -10 -22 -23 -32 -42 -33 -42 -48 -1 -24 l39 24
-28 -27 c-15 -15 -25 -32 -21 -38 3 -5 -11 -27 -32 -49 -21 -21 -35 -39 -30
-39 4 0 -9 -22 -28 -49 -21 -28 -32 -51 -25 -53 15 -5 -28 -87 -70 -133 -18
-20 -37 -49 -42 -65 -6 -16 -21 -36 -35 -45 -24 -16 -32 -41 -14 -47 5 -2 3
-14 -5 -28 -8 -14 -17 -32 -20 -40 -6 -14 -21 -45 -68 -135 -65 -127 -66 -131
-43 -122 10 4 7 -9 -10 -41 -39 -73 -64 -115 -84 -137 -32 -37 -44 -67 -29
-76 11 -6 9 -13 -7 -31 -41 -46 -61 -92 -69 -155 -5 -36 -17 -67 -37 -95 -12
-17 -17 -36 -13 -47 3 -11 2 -28 -3 -38 -6 -10 -17 -34 -25 -53 -8 -19 -31
-67 -50 -107 -24 -49 -30 -70 -20 -66 12 5 11 -2 -5 -33 -11 -21 -23 -55 -27
-74 -4 -19 -18 -51 -31 -70 -13 -19 -24 -39 -24 -45 0 -6 -18 -58 -41 -116
-22 -57 -42 -112 -44 -122 -2 -9 -6 -21 -10 -26 -3 -5 -1 -12 4 -16 6 -3 7
-14 1 -28 -11 -29 -45 -144 -65 -227 -9 -36 -28 -87 -41 -114 -14 -26 -23 -54
-20 -62 3 -7 1 -16 -5 -20 -5 -3 -7 -15 -4 -25 4 -11 0 -31 -9 -44 -9 -13 -13
-31 -10 -39 3 -9 1 -16 -5 -16 -6 0 -8 -7 -5 -15 3 -8 -5 -49 -19 -92 -14 -43
-37 -118 -52 -168 -16 -49 -34 -99 -42 -110 -7 -11 -13 -29 -13 -42 0 -12 -4
-25 -10 -28 -5 -3 -10 -14 -10 -24 0 -10 -13 -43 -30 -74 -32 -60 -53 -134
-40 -139 5 -2 2 -21 -6 -43 -8 -22 -15 -60 -15 -84 0 -27 -11 -65 -29 -100
-72 -142 -91 -199 -95 -282 -1 -25 -7 -54 -12 -65 -6 -10 -11 -32 -12 -49 -1
-36 -4 -51 -20 -88 -16 -41 -15 -874 2 -880 6 -2 12 -18 13 -35 1 -18 10 -49
19 -69 108 -234 135 -267 255 -328 39 -20 90 -49 112 -66 34 -24 51 -29 97
-29 39 0 73 -8 109 -25 31 -14 72 -25 96 -25 23 0 96 -15 162 -34 190 -54 260
-67 404 -77 168 -12 566 -4 640 12 66 15 146 15 705 1 325 -8 451 -15 515 -27
74 -15 131 -16 425 -10 372 6 853 29 965 45 39 6 126 23 193 40 232 56 385 76
672 89 122 6 224 17 315 34 251 48 524 63 715 39 100 -13 262 -6 335 15 98 28
166 42 226 48 32 3 75 8 94 12 19 4 40 7 45 8 6 0 15 4 21 7 12 8 33 12 154
34 131 23 354 102 394 139 6 6 45 30 86 54 245 143 320 224 305 331 -8 55 -10
64 -18 78 -5 6 -5 12 0 12 4 0 2 4 -6 9 -8 5 -16 19 -18 31 -2 11 -20 39 -41
61 -20 23 -36 44 -36 47 1 4 -7 13 -18 20 -10 7 -16 18 -12 23 3 5 2 9 -3 8
-21 -4 -33 2 -33 17 0 8 -4 13 -9 10 -5 -4 -11 0 -14 6 -3 10 -8 9 -22 -2 -17
-14 -18 -13 -12 3 6 15 2 18 -18 17 -3 -1 -13 6 -21 15 -11 11 -20 13 -28 6
-7 -6 -17 -6 -26 -1 -8 5 -18 6 -22 4 -4 -3 -8 0 -8 5 0 6 -12 11 -26 11 -14
0 -23 4 -20 9 3 5 -8 11 -25 15 -17 3 -28 10 -25 15 3 5 -1 11 -9 15 -8 3 -15
12 -15 20 0 8 -10 18 -21 21 -15 5 -18 9 -9 15 8 5 1 11 -20 18 -17 7 -29 15
-26 20 3 5 -12 18 -33 28 -30 14 -37 22 -29 31 7 9 7 13 -1 13 -7 0 -9 5 -6
10 3 6 1 10 -5 10 -6 0 -9 4 -6 9 4 5 1 11 -5 13 -7 2 -13 20 -13 40 -1 21 -5
40 -9 44 -11 12 -8 44 4 44 8 0 8 4 1 12 -9 12 -10 87 -1 113 2 6 -2 20 -9 32
-7 12 -8 24 -3 27 5 3 8 27 6 53 -1 27 2 51 9 56 8 5 7 10 -4 17 -11 7 -11 10
-2 10 8 0 10 5 6 12 -11 17 -16 70 -6 64 4 -2 14 -1 22 4 12 7 12 11 -2 27
-19 22 -20 53 0 53 12 0 12 3 2 15 -7 8 -10 15 -6 15 4 0 -1 11 -9 24 -15 23
-15 25 5 31 15 5 19 12 15 23 -16 40 -22 114 -10 118 13 5 14 72 1 92 -4 7 -3
19 4 27 8 9 8 20 2 32 -5 10 -8 29 -7 43 1 14 -2 31 -8 38 -7 9 -3 18 12 31
15 13 18 22 11 26 -6 4 -9 13 -6 21 3 7 1 16 -4 19 -13 8 -13 45 0 45 6 0 6 9
0 25 -6 16 -6 27 2 31 8 5 7 10 -4 18 -8 6 -14 21 -14 33 0 15 4 19 12 12 14
-11 11 30 -4 57 -6 12 -7 27 -1 43 6 13 7 31 4 39 -3 8 0 21 6 28 7 8 9 29 6
49 -3 19 -2 37 3 40 5 3 2 18 -6 34 -15 29 -5 81 15 81 4 0 7 14 6 31 -2 26 0
30 16 26 19 -5 19 -4 0 22 -19 26 -19 27 2 44 16 13 24 14 34 5 12 -10 12 -7
2 18 -7 16 -16 33 -21 38 -13 16 -9 29 7 22 13 -5 13 -1 1 29 -14 32 -13 35 2
35 10 0 13 3 7 8 -16 11 -18 75 -3 66 9 -6 9 -3 -1 9 -7 9 -9 17 -3 17 17 0
24 33 8 42 -22 12 -9 37 16 30 16 -4 19 -2 12 9 -5 8 -9 22 -10 32 -1 9 -3 19
-4 22 -1 3 -3 8 -4 13 -1 4 -8 18 -15 31 -13 23 -12 24 12 19 24 -5 25 -3 20
25 -5 27 -4 29 16 22 21 -6 22 -5 10 17 -21 37 -19 95 2 82 19 -11 8 23 -13
41 l-23 20 22 3 c19 3 21 7 13 23 -9 15 -7 19 7 20 16 0 15 1 -2 9 -11 4 -30
18 -42 29 -27 25 -32 50 -6 30 14 -12 15 -12 9 0 -7 10 -3 12 14 6 16 -5 20
-4 15 5 -5 9 -2 10 14 5 16 -5 20 -3 15 9 -5 12 -2 15 10 10 14 -5 14 -3 -1
26 -12 25 -13 34 -3 40 8 5 3 13 -19 26 -27 16 -29 20 -14 26 13 5 14 7 3 7
-15 1 -25 51 -10 51 9 0 20 37 12 44 -3 3 -6 19 -7 36 -2 25 0 28 11 19 11 -9
14 -7 14 11 0 16 4 20 16 16 17 -6 12 6 -14 37 -19 21 -6 22 33 1 18 -9 25
-10 18 -3 -17 17 -16 29 2 29 8 0 15 5 15 11 0 8 5 8 15 -1 13 -10 15 -9 15 9
0 14 6 21 19 21 17 0 18 4 11 30 -5 19 -5 28 1 25 14 -9 11 3 -7 30 -16 24
-11 31 19 26 4 -1 3 8 -3 19 -6 11 -8 20 -4 20 3 0 1 7 -6 15 -11 13 -10 14 6
9 19 -7 19 -7 0 14 -16 19 -17 22 -3 22 12 0 14 7 11 27 -4 21 -2 24 8 15 10
-8 13 -3 12 22 -1 18 -4 38 -8 44 -5 8 -1 10 9 6 10 -4 15 -2 13 7 -2 8 3 13
10 11 18 -3 15 4 -10 28 -18 17 -19 20 -5 20 15 0 15 3 5 23 -7 12 -22 33 -33
46 -18 21 -18 23 -2 18 20 -7 21 -3 7 24 -9 16 -7 19 10 19 17 0 19 3 10 19
-16 31 -12 43 10 36 20 -6 20 -6 6 29 -8 20 -11 36 -5 36 5 0 9 7 9 16 0 10 5
12 13 7 6 -4 4 6 -7 21 -16 25 -16 28 -2 23 14 -6 15 -3 5 15 -10 18 -8 24 7
35 17 12 16 14 -7 40 -13 15 -16 21 -6 14 13 -10 20 -11 31 -2 20 16 17 112
-4 129 -12 10 -10 10 13 2 l28 -10 -19 28 -20 28 30 17 c21 12 27 21 21 30
-12 16 -11 36 4 45 13 8 13 29 0 50 -5 7 -3 12 7 12 20 0 20 -1 -8 53 -15 27
-20 44 -12 41 9 -3 11 4 8 26 -2 16 0 30 5 30 4 0 8 20 7 45 -1 25 2 42 6 40
15 -9 20 13 10 39 -8 23 -7 26 12 26 17 0 19 3 10 12 -18 18 -14 32 5 17 14
-12 16 -12 9 0 -13 20 -15 91 -3 91 5 0 4 7 -3 15 -7 9 -9 23 -4 37 8 24 7 42
-3 68 -3 8 -7 33 -7 55 -1 22 -5 50 -10 63 -4 13 -3 22 3 22 7 0 7 8 0 27 -7
19 -7 29 0 31 6 2 8 9 4 15 -4 7 -9 18 -10 25 -7 30 -12 47 -13 47 -1 0 -4 29
-6 65 -3 36 -9 69 -14 75 -5 6 -5 17 0 25 5 8 2 22 -7 37 -8 13 -11 23 -7 23
5 0 2 5 -6 10 -12 8 -13 12 -2 19 11 7 11 9 -2 14 -9 4 -16 16 -16 27 0 12 5
18 10 15 6 -3 10 -2 10 4 0 5 -5 13 -11 16 -6 4 -8 13 -5 20 2 7 -1 18 -7 25
-10 10 -8 12 6 7 20 -7 16 4 -11 36 -13 14 -13 17 -1 17 18 0 18 84 0 118 -6
12 -8 22 -4 22 4 0 -1 8 -12 17 -19 15 -19 15 10 8 l29 -6 -27 27 c-18 18 -24
30 -16 34 14 9 10 20 -20 48 -28 26 -23 39 9 22 20 -11 20 -9 -4 29 -15 22
-26 44 -26 47 0 4 -8 13 -17 21 -13 10 -15 16 -6 19 10 4 9 13 -3 36 -9 17
-11 27 -5 24 17 -11 8 37 -11 58 -10 10 -15 23 -12 27 2 4 0 10 -6 14 -16 10
-11 25 6 18 15 -5 15 -3 1 23 -8 16 -27 39 -42 52 -19 17 -26 30 -22 48 2 13
1 22 -2 20 -3 -2 -12 2 -19 10 -11 12 -10 14 3 14 14 0 13 5 -5 28 -19 24 -20
27 -5 30 13 3 9 9 -16 28 -18 13 -27 24 -20 24 10 0 9 6 -3 25 -9 14 -13 25
-9 25 5 0 0 5 -10 11 -9 6 -15 15 -11 21 3 5 -4 23 -16 40 -12 16 -19 32 -16
35 2 3 -7 16 -21 29 -14 13 -22 24 -18 24 4 0 2 7 -5 15 -9 11 -9 15 -1 15 7
0 9 5 6 11 -4 6 -14 8 -23 4 -9 -3 -13 -3 -9 1 4 4 -1 16 -10 26 -10 12 -16
32 -15 54 2 19 -2 34 -8 34 -6 0 -9 4 -5 9 3 5 -4 12 -14 16 -12 4 -18 12 -14
21 4 10 0 12 -11 8 -11 -4 -16 -1 -16 10 0 9 -6 16 -12 16 -9 0 -8 4 2 10 10
6 11 10 3 10 -8 0 -11 9 -9 23 3 12 5 22 6 22 1 0 4 12 5 27 3 21 -1 28 -18
30 -21 4 -21 5 6 18 31 15 36 28 10 26 -10 0 -17 4 -16 11 2 7 -4 10 -15 7
-14 -5 -14 -3 2 10 17 14 18 16 3 16 -20 0 -23 15 -5 26 8 5 4 10 -10 15 -18
7 -20 12 -13 37 8 25 5 33 -18 53 -37 33 -41 50 -17 72 21 17 21 17 1 15 -12
-2 -19 2 -17 10 1 6 -2 12 -8 12 -18 0 -11 30 8 30 13 1 12 4 -7 14 -23 13
-23 14 -5 24 18 11 18 11 -3 12 -13 0 -23 5 -23 10 0 6 5 10 10 10 6 0 9 3 8
8 -2 11 14 46 26 54 7 5 4 8 -7 8 -10 0 -15 4 -12 10 12 20 14 51 3 44 -7 -5
-9 -2 -5 8 4 12 -3 18 -26 22 -27 6 -30 9 -16 19 27 21 32 48 8 54 -14 4 -17
8 -9 13 16 10 19 52 5 63 -6 4 -5 10 3 16 10 6 8 10 -10 15 -14 4 -18 9 -10
13 6 2 12 11 12 18 0 8 9 17 20 20 25 8 16 25 -13 25 -22 1 -22 1 -3 15 14 10
15 15 6 15 -11 0 -11 3 -2 12 17 17 15 28 -4 28 -14 0 -14 3 -4 15 7 8 9 15 4
15 -4 0 -3 5 4 12 15 15 16 32 2 23 -16 -10 -12 12 5 29 20 19 19 27 -2 20
-12 -4 -10 1 7 16 14 12 20 19 13 16 -18 -10 -26 13 -11 31 11 13 11 17 0 21
-10 3 -9 9 4 23 16 18 16 19 1 14 -13 -5 -15 -2 -12 16 3 12 9 27 14 32 6 6 5
16 -2 27 -8 14 -7 23 4 36 13 16 12 17 -6 10 -18 -7 -18 -5 3 17 25 27 29 42
7 33 -22 -8 -18 10 7 34 l22 20 -21 0 c-19 0 -21 4 -16 33 2 17 6 39 7 49 1 9
8 24 15 32 12 14 11 16 -4 10 -15 -6 -16 -4 -5 17 7 13 19 32 28 42 14 15 13
17 -1 17 -21 0 -21 9 -1 32 16 16 15 18 0 24 -16 6 -16 8 1 28 17 19 17 20 0
7 -27 -21 -35 -2 -8 20 13 10 20 19 16 19 -5 0 -1 8 7 18 28 32 29 49 1 46
-14 -1 -22 1 -18 4 4 4 12 7 18 7 7 0 12 7 12 15 0 8 11 21 25 28 14 7 17 10
6 7 -13 -4 -17 -1 -12 10 3 8 1 15 -5 15 -6 0 -7 5 -4 10 4 6 10 8 15 5 5 -3
11 -1 15 5 3 5 1 10 -5 10 -6 0 -8 5 -4 11 4 8 -1 9 -17 4 -21 -7 -22 -6 -10
9 12 14 12 16 -5 10 -18 -5 -18 -5 0 10 11 9 16 16 12 16 -5 0 -2 8 5 17 12
15 12 16 -3 10 -10 -3 -18 -2 -18 3 0 6 4 10 9 10 5 0 8 11 5 24 -3 18 1 26
15 31 10 3 21 14 24 25 3 13 1 17 -9 13 -8 -3 -12 -8 -9 -12 2 -4 -2 -8 -11
-8 -10 0 -12 7 -8 21 5 17 4 19 -7 9 -22 -22 -33 -14 -13 8 10 12 17 23 16 26
-2 3 0 8 4 11 4 4 4 0 -1 -8 -6 -12 -5 -13 5 -3 24 22 20 40 -6 35 -28 -5 -31
9 -8 32 8 9 11 16 6 16 -5 0 -9 6 -10 13 -1 6 -3 28 -5 47 -6 44 1 60 20 53
12 -5 14 -1 8 15 -5 16 -2 22 10 22 13 0 14 4 4 22 -10 18 -8 24 9 38 19 16
19 18 5 33 -15 15 -15 17 0 23 13 5 14 10 7 25 -8 15 -6 23 10 36 23 20 26 43
6 43 -17 0 -18 41 -2 52 6 4 5 12 -3 21 -10 13 -9 16 7 21 22 7 22 63 0 77
-10 7 -8 9 6 9 18 0 18 1 -3 24 -21 22 -21 25 -5 28 16 3 17 4 1 20 -11 10
-13 19 -7 23 6 4 1 14 -12 25 -17 14 -19 20 -8 20 12 0 11 3 -3 11 -14 8 -16
14 -6 25 9 12 6 14 -20 14 -37 0 -38 3 -9 32 19 19 20 22 5 33 -10 7 -17 17
-17 22 0 6 -9 13 -20 16 -11 3 -20 12 -20 21 0 9 -9 26 -20 38 -24 26 -26 42
-5 34 25 -9 17 2 -12 18 -16 8 -22 15 -14 16 11 0 10 5 -4 20 -10 11 -14 20
-9 21 5 0 -1 4 -14 9 -12 5 -25 18 -29 27 -8 22 -28 43 -41 43 -5 0 -15 14
-22 30 -7 17 -18 30 -25 30 -7 0 -18 6 -25 14 -6 8 -18 12 -26 9 -8 -3 -14 0
-14 5 0 6 -10 14 -22 18 -13 4 -26 12 -30 18 -5 8 -8 7 -8 -2 0 -8 -5 -10 -12
-5 -19 12 -78 11 -78 -2 0 -5 -4 -4 -9 4 -8 12 -14 13 -37 2 -22 -10 -29 -10
-35 1 -6 9 -9 7 -9 -7 -1 -20 -1 -20 -15 -1 -13 17 -15 18 -21 2z m-2774
-4115 c-5 -11 -15 -23 -22 -27 -7 -5 -8 -2 -3 7 21 37 44 55 25 20z m-154
-203 c4 -7 4 -10 -1 -6 -4 4 -15 2 -24 -5 -14 -11 -14 -10 -2 6 16 20 18 21
27 5z"/>
<path d="M3688 8913 c12 -2 30 -2 40 0 9 3 -1 5 -23 4 -22 0 -30 -2 -17 -4z"/>
<path d="M3618 8903 c6 -2 18 -2 25 0 6 3 1 5 -13 5 -14 0 -19 -2 -12 -5z"/>
<path d="M3558 8893 c6 -2 18 -2 25 0 6 3 1 5 -13 5 -14 0 -19 -2 -12 -5z"/>
<path d="M3508 8883 c6 -2 18 -2 25 0 6 3 1 5 -13 5 -14 0 -19 -2 -12 -5z"/>
<path d="M3468 8873 c7 -3 16 -2 19 1 4 3 -2 6 -13 5 -11 0 -14 -3 -6 -6z"/>
<path d="M3428 8863 c7 -3 16 -2 19 1 4 3 -2 6 -13 5 -11 0 -14 -3 -6 -6z"/>
<path d="M3929 8583 c-13 -16 -12 -17 4 -4 9 7 17 15 17 17 0 8 -8 3 -21 -13z"/>
<path d="M3849 8519 l-54 -51 58 48 c52 44 62 54 54 54 -2 0 -28 -23 -58 -51z"/>
<path d="M3944 8399 c-117 -82 -265 -215 -347 -314 -23 -27 12 5 78 71 66 67
167 156 225 199 115 85 116 85 108 85 -2 0 -31 -19 -64 -41z"/>
<path d="M3814 8388 l-29 -33 33 29 c30 28 37 36 29 36 -2 0 -16 -15 -33 -32z"/>
<path d="M3539 8013 c-13 -16 -12 -17 4 -4 9 7 17 15 17 17 0 8 -8 3 -21 -13z"/>
<path d="M3509 7973 c-13 -16 -12 -17 4 -4 9 7 17 15 17 17 0 8 -8 3 -21 -13z"/>
</g>
</svg>
