<?xml version="1.0" standalone="no"?>
<!DOCTYPE svg PUBLIC "-//W3C//DTD SVG 20010904//EN"
 "http://www.w3.org/TR/2001/REC-SVG-20010904/DTD/svg10.dtd">
<svg version="1.0" xmlns="http://www.w3.org/2000/svg"
 width="960.000000pt" height="1280.000000pt" viewBox="0 0 960.000000 1280.000000"
 preserveAspectRatio="xMidYMid meet">
<g transform="translate(0.000000,1280.000000) scale(0.100000,-0.100000)"
fill="#000000" stroke="none">
<path d="M3126 12380 c-66 -61 -123 -181 -219 -465 -99 -291 -105 -306 -184
-447 -113 -203 -208 -483 -247 -728 -23 -146 -37 -383 -30 -501 l7 -106 -93
-106 c-115 -134 -258 -268 -513 -481 -147 -123 -227 -199 -309 -293 -227 -260
-359 -440 -430 -588 -51 -106 -69 -240 -49 -354 36 -201 200 -374 415 -436 73
-21 234 -22 332 -1 102 22 172 50 402 164 204 101 272 124 310 103 32 -17 34
-42 12 -156 -46 -240 -71 -517 -95 -1040 -8 -187 -17 -350 -20 -361 -5 -21
-10 -22 -287 -27 -393 -7 -663 -44 -968 -132 -205 -59 -490 -183 -504 -220 -3
-9 -6 -56 -6 -103 0 -70 -4 -93 -20 -117 -25 -37 -25 -54 -2 -62 9 -4 20 -11
24 -17 4 -6 8 -196 8 -422 l0 -411 -25 -23 c-30 -28 -32 -50 -6 -50 32 0 41
-23 39 -101 -2 -41 3 -93 10 -117 12 -40 17 -44 115 -91 56 -28 169 -73 251
-101 83 -28 178 -62 213 -75 35 -14 268 -65 519 -115 250 -49 464 -95 475
-100 23 -13 24 -23 3 -40 -50 -42 -170 -302 -229 -495 -59 -194 -79 -320 -80
-495 0 -175 9 -227 62 -342 l36 -77 -63 -168 c-34 -92 -136 -382 -225 -643
-281 -819 -381 -1092 -446 -1222 -53 -105 -32 -148 53 -110 76 34 94 63 137
222 22 80 71 237 109 350 73 214 107 308 344 940 80 212 157 420 173 463 22
63 31 78 45 74 27 -7 362 -239 368 -256 6 -16 -16 -951 -24 -1018 l-5 -42 -57
-6 c-226 -25 -370 -111 -408 -243 -20 -68 -13 -127 27 -209 57 -119 191 -210
353 -241 79 -15 87 -19 92 -42 9 -42 25 -77 55 -125 26 -41 32 -45 69 -45 31
0 47 6 65 26 24 26 45 99 45 158 0 32 6 37 183 149 337 213 512 361 632 535
28 40 56 71 64 70 8 -2 65 -146 140 -353 69 -192 136 -366 148 -386 37 -58
112 -79 148 -39 17 19 12 33 -166 474 l-183 455 18 93 c9 51 50 230 91 398 86
360 89 371 115 519 22 127 27 306 8 346 -7 17 -35 37 -83 60 -141 68 -232 203
-205 305 24 90 129 165 293 210 l77 21 73 -45 c129 -80 319 -125 528 -126 129
0 124 10 123 -222 -1 -212 -12 -315 -50 -446 -67 -230 -193 -376 -376 -433
-88 -28 -211 -103 -267 -164 -33 -36 -41 -52 -41 -83 0 -60 59 -98 202 -131
161 -37 281 -46 628 -46 297 0 351 3 476 23 247 39 385 84 420 137 16 24 16
29 1 59 -21 44 -131 117 -251 166 -126 52 -190 85 -262 136 -217 153 -324 426
-295 750 11 124 27 214 40 227 5 5 36 3 70 -4 223 -43 581 71 746 239 35 35
48 43 57 34 9 -9 1 -32 -33 -98 l-44 -87 0 -116 c1 -109 3 -123 42 -237 23
-67 58 -154 78 -194 20 -40 52 -118 72 -174 32 -93 84 -208 127 -281 18 -30
18 -30 -59 -258 l-77 -227 -139 -118 c-118 -99 -139 -121 -139 -145 0 -36 49
-87 83 -87 38 0 57 -10 57 -30 0 -9 -25 -107 -56 -216 -31 -110 -57 -205 -58
-213 -2 -29 123 -53 163 -31 24 12 38 49 101 267 30 102 59 184 66 187 8 3 89
13 181 22 l168 17 130 59 c243 111 426 223 658 402 108 83 289 187 303 174 7
-8 32 -96 229 -808 64 -228 122 -430 130 -448 31 -69 95 -9 95 88 0 25 -148
659 -331 1420 -280 1163 -336 1382 -360 1421 -51 81 -46 82 99 31 l84 -29 112
-219 c211 -412 539 -985 1030 -1802 130 -216 236 -404 236 -416 0 -35 34 -71
92 -100 61 -31 94 -33 107 -7 16 29 -3 79 -76 198 -409 667 -699 1171 -1238
2156 l-169 307 -60 19 c-34 10 -94 26 -135 36 -41 10 -81 25 -91 35 -13 13
-18 46 -25 156 -10 180 -10 -1 -7 1727 l2 1517 33 20 c59 36 240 112 372 155
178 59 396 113 782 195 321 69 423 95 423 108 0 4 -69 29 -152 55 -621 196
-1176 385 -1283 436 -33 16 -89 49 -125 73 l-65 43 -7 105 c-4 58 -11 311 -15
562 -5 251 -11 460 -16 464 -4 4 -18 -3 -32 -16 -25 -23 -25 -25 -25 -190 0
-92 -3 -336 -7 -543 l-6 -377 -46 -46 c-45 -45 -94 -74 -126 -74 -9 0 -27 11
-40 24 -45 45 -55 110 -70 433 -8 173 -23 362 -35 441 -42 290 -125 504 -267
691 -26 35 -54 72 -61 81 -6 9 -26 79 -42 156 -86 396 -176 607 -326 764 l-74
77 -90 348 c-83 323 -89 352 -79 394 28 123 7 231 -54 275 -40 29 -134 28
-201 -2 -67 -30 -147 -94 -188 -148 -18 -24 -41 -46 -51 -49 -23 -8 -148 7
-482 60 -427 68 -588 86 -825 92 -290 8 -424 -11 -573 -79 -37 -17 -70 -28
-74 -24 -4 3 -39 88 -79 189 -65 166 -74 182 -97 185 -19 2 -38 -8 -71 -38z
m52 -317 c-13 -273 32 -440 127 -474 45 -17 44 -35 -2 -49 -72 -21 -150 -24
-176 -7 -45 30 -41 173 14 487 11 63 22 123 25 133 12 40 16 10 12 -90z m2541
48 c27 -27 35 -78 28 -183 -5 -73 2 -146 38 -401 l43 -312 45 -90 c90 -178
123 -325 114 -508 -8 -170 -63 -330 -171 -499 -18 -29 -93 -159 -166 -288
-205 -364 -357 -585 -425 -617 -18 -9 -31 -21 -29 -28 7 -16 -71 -84 -173
-152 -72 -49 -96 -59 -215 -89 -306 -77 -494 -106 -693 -106 -251 1 -407 54
-542 188 -23 23 -75 58 -115 79 -40 21 -80 46 -88 56 -24 30 -314 79 -296 51
4 -7 -4 -14 -21 -18 -101 -22 -155 -38 -203 -60 -67 -31 -143 -74 -138 -80 2
-2 37 8 77 21 289 98 663 -1 757 -200 41 -86 28 -156 -42 -233 -24 -28 -73
-69 -108 -91 -35 -22 -73 -55 -85 -74 -12 -19 -28 -38 -37 -41 -60 -23 -105
21 -174 168 -29 61 -50 94 -55 87 -4 -7 -2 -48 5 -92 21 -133 0 -189 -70 -189
-20 0 -83 16 -140 35 -123 41 -170 45 -170 14 0 -127 -292 -338 -645 -467
-156 -57 -251 -76 -375 -76 -172 1 -296 44 -400 141 -83 76 -122 157 -128 265
-8 143 35 265 149 420 35 48 88 127 117 175 155 256 503 611 965 982 48 39 92
71 96 71 5 0 36 -25 70 -55 73 -65 109 -90 118 -81 3 3 -10 44 -30 90 -20 47
-37 94 -37 104 0 11 30 53 66 93 99 110 121 154 150 296 5 29 63 55 226 104
289 87 435 195 532 394 74 150 106 297 115 525 l6 155 85 45 c149 80 259 210
302 360 11 38 20 47 63 70 47 24 57 25 215 24 134 0 183 -4 260 -22 226 -54
590 -200 590 -238 0 -31 -61 -113 -128 -173 -46 -41 -63 -63 -59 -75 15 -39
88 -8 189 81 37 32 134 130 216 219 218 234 273 273 321 225z m496 -1804 c115
-283 122 -297 161 -325 58 -42 99 -95 143 -187 113 -234 181 -598 182 -975 0
-202 -13 -336 -34 -357 -16 -16 -1146 -365 -1158 -358 -5 4 -9 12 -9 19 0 7
-65 35 -147 65 -230 82 -233 83 -233 93 0 10 1 10 283 -43 114 -21 218 -39
229 -39 73 0 -54 29 -507 115 -280 53 -514 101 -519 106 -5 5 -7 12 -3 15 4 4
253 -27 554 -70 570 -79 593 -82 578 -67 -6 5 -81 18 -168 30 -212 30 -277 42
-277 51 0 9 17 9 339 -16 112 -8 206 -12 209 -9 14 14 27 12 -648 65 -212 17
-428 33 -480 37 -100 6 -130 15 -130 38 0 18 -3 18 -545 60 -253 20 -466 38
-473 41 -21 7 -11 19 54 67 60 44 94 93 94 136 0 28 20 27 107 -4 l71 -25 269
10 c505 18 771 43 837 77 17 9 56 34 86 56 30 23 70 46 89 53 19 6 36 19 37
28 1 9 13 25 27 36 113 89 267 235 267 253 0 7 4 17 9 22 16 17 229 421 336
638 113 228 177 405 195 537 13 91 27 132 44 127 6 -2 65 -137 131 -300z
m1013 -1756 c42 -21 75 -51 112 -99 24 -32 38 -37 475 -157 248 -69 518 -143
601 -166 159 -43 184 -53 170 -66 -4 -4 -321 -11 -704 -15 -383 -4 -1090 -12
-1571 -17 -481 -5 -881 -6 -889 -2 -9 5 -11 11 -5 14 6 4 349 101 762 216 633
176 756 213 783 237 83 70 193 93 266 55z m-3168 -111 l465 -28 260 -71 c326
-89 681 -205 709 -231 13 -12 -14 -23 -201 -80 -95 -29 -170 -56 -168 -60 3
-4 21 -10 42 -13 21 -3 211 -35 423 -71 577 -98 983 -154 1159 -158 l85 -2 75
-61 c41 -33 76 -66 78 -72 6 -18 -26 -30 -106 -41 -70 -10 -111 -31 -111 -56
0 -24 -70 -154 -121 -226 -171 -242 -465 -421 -781 -475 -51 -9 -115 -23 -143
-32 -124 -40 -225 -34 -413 24 -316 97 -382 109 -441 78 -17 -8 -35 -30 -44
-54 -14 -33 -23 -42 -58 -52 -100 -31 -308 51 -427 166 -57 56 -63 66 -60 96
2 27 10 38 38 52 29 16 50 18 130 13 52 -4 105 -9 116 -12 17 -4 26 2 44 30
12 20 34 43 48 50 62 32 850 286 886 286 51 0 119 64 114 107 -3 26 -7 28 -51
31 -29 2 -73 -5 -110 -17 -34 -11 -139 -41 -233 -66 -203 -54 -242 -55 -444
-19 -250 45 -354 27 -466 -81 -38 -36 -44 -49 -60 -124 -11 -51 -26 -94 -39
-107 -15 -17 -106 -49 -350 -124 -265 -82 -334 -107 -351 -127 -17 -19 -103
-51 -445 -159 -233 -74 -425 -137 -428 -140 -21 -21 41 -6 234 55 328 103 345
93 50 -31 -77 -33 -145 -64 -151 -69 -7 -5 -74 -8 -155 -7 l-144 3 -14 40
c-19 56 -26 321 -12 458 14 127 42 308 100 647 22 129 47 303 56 385 17 156
38 259 56 282 17 20 52 16 100 -12 95 -55 157 -53 252 7 47 30 49 31 142 24
106 -8 141 2 189 53 l30 31 90 -6 c50 -3 300 -19 556 -34z m4560 -410 c13 -9
13 -11 1 -19 -23 -15 -195 -48 -611 -117 -545 -90 -671 -121 -814 -199 -121
-66 -184 -58 -288 34 -45 40 -53 43 -145 57 -54 7 -271 30 -483 49 -746 69
-990 104 -990 143 0 12 282 19 1375 33 775 10 1695 23 1870 27 39 1 77 -3 85
-8z m-3751 -594 c26 -14 32 -22 29 -44 -4 -36 -63 -65 -181 -89 -73 -14 -95
-24 -135 -56 -84 -70 -161 -98 -211 -77 -63 26 -60 92 8 160 97 96 387 159
490 106z m2186 -9 c10 -24 -10 -2667 -19 -2670 -6 -1 -37 34 -70 78 -33 44
-112 132 -176 195 -156 155 -236 200 -422 235 -26 5 -28 8 -28 59 0 76 28 160
137 406 148 333 178 441 185 665 4 146 0 251 -18 415 -19 178 -14 290 17 383
20 61 86 174 116 198 14 12 185 45 246 48 15 0 30 -5 32 -12z m-578 -519 c-35
-57 -73 -121 -85 -143 -38 -77 -80 -212 -112 -365 -45 -215 -78 -315 -124
-374 -80 -105 -116 -221 -116 -375 0 -185 62 -353 171 -462 79 -79 151 -111
259 -117 111 -6 180 -39 270 -131 208 -209 252 -579 96 -806 -20 -28 -54 -66
-76 -84 -42 -33 -43 -36 -155 -296 -134 -313 -405 -1043 -405 -1090 0 -12 -5
-36 -11 -54 -9 -27 -16 -32 -38 -29 -21 2 -32 15 -58 68 -71 142 -221 666
-210 734 3 17 19 71 37 120 82 228 17 324 -244 362 -124 18 -110 20 -426 -51
-336 -75 -357 -78 -650 -80 -275 -2 -344 -10 -525 -56 -353 -90 -536 -278
-501 -513 l7 -45 94 -46 c97 -48 161 -100 192 -157 27 -50 23 -217 -10 -383
-29 -147 -181 -743 -192 -753 -4 -4 -12 0 -18 9 -6 9 -134 380 -286 825 l-276
809 -170 85 -170 85 -3 256 -2 256 47 64 c59 81 151 177 219 229 l52 41 228
29 c552 71 960 153 1137 229 l47 20 0 61 c0 60 15 90 51 102 10 3 3 17 -23 46
l-38 42 0 410 0 409 31 16 c30 16 30 16 13 43 -35 54 -44 78 -44 122 0 64 -17
116 -48 150 -30 32 -361 193 -527 255 -100 37 -263 74 -510 114 -171 28 -175
29 -175 44 0 7 91 78 203 158 l202 145 81 11 c51 8 144 35 250 73 96 35 188
62 212 63 l44 2 22 -60 c28 -77 69 -136 145 -208 74 -71 154 -110 238 -115 82
-6 149 25 224 102 l56 57 119 -40 c206 -69 300 -85 529 -85 217 -1 286 7 448
55 181 54 357 150 496 273 36 31 66 54 69 52 2 -3 -25 -51 -61 -108z m-3037
-112 c-8 -8 -117 -67 -241 -130 -179 -92 -234 -116 -267 -116 -37 0 -62 13
-49 26 12 12 544 231 567 234 2 0 -2 -7 -10 -14z m-50 -75 c0 -5 -49 -46 -110
-90 -60 -45 -110 -85 -110 -91 0 -11 -71 -13 -107 -4 -13 4 -23 10 -23 15 0 8
325 177 343 178 4 1 7 -3 7 -8z m-715 -221 c295 -12 458 -25 640 -51 185 -27
190 -29 190 -99 0 -49 -2 -55 -20 -53 -11 1 -108 13 -215 27 -556 73 -1064 83
-1515 29 -77 -9 -156 -17 -175 -17 l-35 -1 1 58 c1 32 6 63 11 68 38 38 625
59 1118 39z m-1196 -89 c12 -21 18 -88 9 -96 -4 -4 -38 -11 -76 -15 -248 -32
-496 -116 -634 -217 -26 -19 -53 -31 -59 -27 -15 9 -5 78 16 111 34 51 405
205 595 247 95 21 137 20 149 -3z m2217 -22 c161 -42 547 -209 640 -277 37
-27 43 -37 49 -82 9 -64 -2 -78 -38 -50 -62 49 -401 185 -660 265 -48 15 -91
35 -96 44 -18 34 -24 103 -10 112 19 12 26 12 115 -12z m-636 -110 c163 -11
347 -38 415 -62 l40 -14 0 -114 0 -114 -32 -3 -33 -3 0 -157 0 -157 41 -82
c31 -63 43 -98 47 -148 4 -51 2 -65 -9 -66 -33 -3 -82 3 -224 26 -505 83 -944
107 -1660 91 l-60 -1 -3 34 c-2 19 6 55 18 84 21 47 22 64 18 213 l-4 163 -31
38 c-27 35 -31 48 -37 128 -4 50 -3 96 2 103 12 18 107 29 367 42 412 20 830
20 1145 -1z m-1586 -85 c3 -9 6 -47 6 -85 0 -54 -5 -80 -25 -118 -24 -49 -24
-51 -17 -219 8 -164 9 -171 35 -202 26 -31 37 -92 19 -104 -5 -3 -72 -14 -150
-26 -274 -40 -457 -105 -535 -189 -21 -23 -42 -41 -47 -41 -14 0 -20 124 -23
455 l-2 310 103 51 c120 59 309 125 455 159 124 29 173 31 181 9z m2366 -93
c322 -109 463 -176 514 -245 23 -31 23 -33 29 -422 3 -214 2 -396 -3 -404 -6
-10 -15 -8 -40 13 -69 58 -180 110 -517 241 -95 37 -175 72 -178 77 -3 5 -12
39 -20 76 l-15 68 32 45 31 45 5 163 5 162 -47 50 -46 49 0 74 c0 78 5 91 30
83 8 -3 107 -36 220 -75z m-1315 -691 c392 -25 974 -105 1006 -137 12 -12 25
-93 15 -93 -3 0 -72 13 -153 30 -283 56 -530 84 -883 100 -341 15 -808 -9
-1073 -55 -87 -15 -103 -13 -110 17 -13 48 1 54 203 87 337 55 669 72 995 51z
m-1282 -139 c5 -19 5 -37 -1 -43 -5 -5 -49 -19 -98 -32 -114 -31 -223 -71
-298 -108 -32 -16 -61 -26 -65 -23 -20 21 181 153 322 211 102 42 128 41 140
-5z m1622 -45 c290 -31 609 -87 633 -111 11 -10 0 -24 -65 -76 -43 -35 -151
-128 -241 -206 -144 -125 -178 -149 -275 -197 -116 -57 -208 -86 -272 -86 -28
0 -187 70 -629 276 -325 152 -601 286 -613 297 -27 24 -30 54 -5 61 33 10 218
35 342 46 69 5 143 12 165 14 106 10 829 -3 960 -18z m923 -11 c67 -19 134
-41 149 -47 70 -31 390 -203 411 -221 15 -15 22 -32 22 -59 0 -21 -4 -38 -10
-38 -5 0 -33 15 -62 34 -124 79 -322 165 -530 231 -116 36 -117 37 -124 71 -6
35 0 64 14 64 4 0 63 -16 130 -35z m-2551 -142 c33 -27 138 -114 234 -195 111
-93 246 -194 372 -277 115 -76 197 -137 194 -144 -3 -9 -35 -12 -113 -11 -290
4 -1092 243 -1136 339 -17 38 31 107 130 186 71 57 226 149 252 149 5 0 35
-21 67 -47z m2584 -41 c152 -52 183 -66 324 -152 129 -78 195 -126 195 -141 0
-43 -280 -99 -791 -158 -285 -34 -285 -34 -242 47 75 139 333 442 378 442 12
0 74 -17 136 -38z m-2190 -80 c435 -186 724 -348 781 -440 17 -27 18 -35 7
-48 -17 -20 -103 -64 -127 -64 -24 0 -181 96 -333 205 -178 127 -511 380 -533
404 -19 21 -19 21 1 21 10 0 102 -35 204 -78z m1879 54 c0 -24 -156 -190 -426
-455 -280 -274 -361 -348 -371 -337 -8 8 25 152 42 186 19 36 69 80 160 140
141 94 282 208 490 398 49 45 93 82 97 82 5 0 8 -6 8 -14z m-976 -599 c31 -41
33 -66 5 -101 -39 -49 -78 -28 -86 48 -10 84 35 113 81 53z m-96 -257 l92 -81
-2 -237 -3 -237 -144 -116 -145 -115 -61 -190 c-64 -199 -77 -219 -109 -170
-80 123 -51 513 62 854 63 185 163 372 200 372 10 0 59 -36 110 -80z m4606
-146 c9 -25 7 -1467 -3 -1483 -16 -24 -48 -1 -92 65 -46 71 -66 85 -149 104
-102 24 -120 54 -88 141 57 155 119 359 144 474 25 116 28 153 30 342 2 209 2
212 29 261 51 94 112 140 129 96z m-234 -339 c20 -97 0 -206 -110 -595 -72
-256 -65 -380 24 -421 22 -10 50 -19 61 -19 11 0 37 -5 58 -11 45 -12 71 -58
61 -108 -6 -31 -37 -71 -55 -71 -6 0 -31 17 -57 39 -26 21 -55 41 -66 45 -16
5 -17 3 -10 -21 12 -43 9 -89 -8 -115 -17 -25 -130 -98 -151 -98 -7 1 -28 14
-47 30 -19 17 -38 30 -43 30 -5 0 -6 -20 -2 -46 5 -34 3 -49 -7 -55 -19 -12
-66 -11 -91 2 -22 12 -22 12 -3 -9 10 -12 16 -28 13 -36 -6 -16 -150 -116
-167 -116 -5 0 -10 8 -10 17 0 31 55 185 68 190 6 3 24 -3 39 -13 l28 -17 -16
24 c-37 57 -39 50 182 722 214 648 236 704 281 706 12 1 20 -13 28 -54z m423
-168 c3 -7 38 -212 78 -455 85 -511 87 -477 -24 -477 l-62 0 -7 85 c-3 47 -6
259 -7 473 -1 346 4 422 22 374z m-4365 -154 c63 -21 118 -45 122 -53 4 -8
135 -372 290 -809 218 -614 280 -801 276 -824 -3 -16 -26 -72 -50 -123 -99
-209 -193 -309 -456 -484 -69 -46 -162 -112 -208 -148 -55 -42 -87 -61 -93
-55 -7 7 -9 105 -7 259 3 209 6 254 20 279 9 17 62 80 119 140 56 61 118 134
138 164 l36 54 0 221 c0 247 -8 295 -69 421 -42 85 -93 136 -177 178 l-64 32
-8 360 c-8 338 -5 425 11 425 3 0 57 -17 120 -37z m-344 9 c3 -5 6 -159 7
-343 3 -331 -1 -379 -31 -379 -14 0 -291 201 -296 214 -4 10 102 319 141 412
11 28 28 41 87 69 78 38 84 39 92 27z m2430 -821 c70 -138 233 -322 344 -388
24 -14 41 -30 39 -37 -2 -6 -31 -30 -65 -53 -156 -105 -316 -115 -352 -21 -9
22 -14 117 -18 285 -4 233 -2 283 13 283 2 0 20 -31 39 -69z m-2154 -76 c124
-64 199 -434 135 -655 -17 -56 -111 -242 -148 -292 -47 -63 -47 -61 -47 460 0
269 3 492 7 495 10 10 21 9 53 -8z m-313 -1091 l28 -21 -3 -264 c-3 -303 -5
-309 -69 -274 -59 32 -96 101 -103 194 l-5 76 -18 -49 c-9 -27 -17 -76 -17
-108 0 -52 -2 -58 -20 -58 -26 0 -108 41 -148 75 -73 61 -92 171 -47 262 32
63 108 136 178 169 68 32 179 31 224 -2z"/>
<path d="M3393 9933 c-18 -47 106 -192 217 -254 36 -20 79 -44 97 -55 104 -61
-2 108 -137 219 -66 55 -145 107 -163 107 -4 0 -10 -7 -14 -17z"/>
<path d="M4748 9726 c-60 -18 -106 -51 -114 -83 -16 -63 38 -77 154 -39 42 13
108 31 145 40 114 26 150 53 105 77 -33 18 -232 22 -290 5z"/>
<path d="M4053 9388 c-32 -15 -29 -33 12 -64 29 -22 35 -33 35 -63 0 -39 -28
-109 -51 -128 -23 -19 -149 -63 -180 -63 -18 0 -29 -5 -29 -14 0 -7 -12 -21
-26 -31 -45 -29 -19 -27 62 6 70 28 91 32 179 33 96 1 102 0 150 -30 32 -20
70 -34 104 -38 30 -4 67 -14 82 -22 15 -7 43 -14 61 -14 l33 1 -28 24 c-29 26
-84 45 -130 45 -38 0 -80 23 -128 70 l-41 39 7 68 c5 50 13 75 30 93 12 14 28
35 34 47 9 18 8 24 -11 37 -26 19 -130 21 -165 4z"/>
</g>
</svg>
